<svg width="51" height="48" viewBox="0 0 51 48" fill="none" xmlns="http://www.w3.org/2000/svg">
<g clip-path="url(#clip0)">
<path d="M17.9683 47.9363C18.4655 48.1856 18.99 47.6458 18.6856 47.1991C17.0332 44.774 15.4684 40.6934 17.9614 35.4381C22.1189 26.6744 24.6487 22.1354 24.6487 22.1354C24.6487 22.1354 25.9943 27.4324 29.6418 32.1421C33.1524 36.6749 35.0739 42.3757 31.9761 47.1248C31.6854 47.5705 32.1981 48.0964 32.6921 47.858C36.5266 46.0085 40.8274 42.2984 41.3127 34.9155C41.4916 32.6595 41.2233 29.5011 39.8815 25.5154C38.1563 20.464 36.0354 18.1069 34.8083 17.0946C34.4412 16.7918 33.8704 17.0602 33.9005 17.5192C34.2581 22.9697 32.0834 24.3528 30.8457 21.2357C30.3513 19.9907 30.063 17.8373 30.063 15.2149C30.063 10.849 28.7197 6.35468 25.7581 2.7026C24.988 1.75287 24.0868 0.86542 23.0529 0.108634C22.6786 -0.165406 22.136 0.110046 22.1703 0.555694C22.3977 3.51538 22.1917 11.9977 14.2996 22.1313C7.14381 31.5314 9.91665 38.7507 10.9006 40.706C12.7817 44.4518 15.4057 46.6515 17.9683 47.9363Z" fill="#3751FF"/>
</g>
<defs>
<clipPath id="clip0">
<rect width="50.9052" height="48" fill="white"/>
</clipPath>
</defs>
</svg>
